<?xml version="1.0" standalone="no"?>
<!DOCTYPE svg PUBLIC "-//W3C//DTD SVG 20010904//EN"
 "http://www.w3.org/TR/2001/REC-SVG-20010904/DTD/svg10.dtd">
<svg version="1.0" xmlns="http://www.w3.org/2000/svg"
 width="243.000000pt" height="243.000000pt" viewBox="0 0 243.000000 243.000000"
 preserveAspectRatio="xMidYMid meet">
<metadata>
Created by potrace 1.14, written by Peter Selinger 2001-2017
</metadata>
<g transform="translate(0.000000,243.000000) scale(0.100000,-0.100000)"
fill="#000000" stroke="none">
<path d="M1116 1813 c-31 -8 -88 -47 -122 -84 -56 -60 -84 -132 -84 -210 0
-36 -4 -49 -14 -49 -8 0 -17 4 -20 9 -3 5 -35 17 -70 26 -100 27 -222 18 -309
-23 -83 -38 -175 -123 -213 -196 -25 -48 -40 -60 -153 -132 l-126 -80 -3 -192
-2 -192 216 0 216 0 67 -32 c63 -31 72 -33 181 -33 109 0 119 2 184 33 l68 32
318 0 318 0 68 -32 c65 -31 75 -33 184 -33 109 0 119 2 184 33 52 24 82 32
125 32 l56 0 123 123 122 122 0 408 0 407 -305 0 -305 0 0 -75 c0 -41 -2 -75
-4 -75 -3 0 -38 13 -79 30 -47 19 -108 33 -167 40 l-93 10 -46 50 c-65 69
-116 90 -216 89 -44 -1 -89 -4 -99 -6z m1154 -518 l0 -305 -78 0 -78 0 4 63
c6 91 -25 167 -94 235 l-54 52 0 130 0 130 150 0 150 0 0 -305z m-1015 195
c-39 -40 -39 -40 -117 -40 l-78 0 0 40 0 40 117 0 117 0 -39 -40z m303 30 c51
-6 106 -19 140 -35 55 -25 152 -93 152 -106 0 -4 -26 -8 -58 -11 -133 -9 -255
-124 -270 -253 l-4 -43 -237 -4 c-228 -3 -237 -4 -268 -26 l-33 -23 0 54 c0
30 -7 74 -15 97 -8 23 -15 44 -15 46 0 1 87 4 193 6 l194 3 36 28 c55 42 67
73 67 175 0 49 3 92 7 95 8 9 12 9 111 -3z m-800 -320 c100 -61 95 -211 -8
-262 -74 -38 -154 -13 -197 59 -60 102 11 222 132 223 23 0 54 -9 73 -20z
m1149 -8 c91 -65 78 -209 -23 -257 -73 -34 -160 -5 -197 66 -23 43 -18 119 10
157 46 63 147 79 210 34z m-1522 -132 l1 -70 -115 0 c-69 0 -111 4 -105 9 12
12 207 131 214 131 3 0 5 -32 5 -70z"/>
</g>
</svg>
